<svg xmlns="http://www.w3.org/2000/svg" viewBox="0 0 600 400" fill="none">
  <rect width="600" height="400" fill="#0a0a0f"/>
  <defs>
    <linearGradient id="g3" x1="0" y1="0" x2="1" y2="1">
      <stop offset="0%" stop-color="#10b981"/>
      <stop offset="100%" stop-color="#14b8a6"/>
    </linearGradient>
    <filter id="glow"><feGaussianBlur stdDeviation="3" result="blur"/><feMerge><feMergeNode in="blur"/><feMergeNode in="SourceGraphic"/></feMerge></filter>
  </defs>
  <circle cx="300" cy="180" r="80" fill="#0a1a1a" stroke="url(#g3)" stroke-width="1.5" opacity="0.6"/>
  <path d="M270 150 L270 210 L310 180 Z" fill="url(#g3)" opacity="0.5" filter="url(#glow)"/>
  <line x1="120" y1="260" x2="480" y2="260" stroke="#10b981" stroke-width="1" opacity="0.2"/>
  <rect x="150" y="260" width="8" height="40" rx="2" fill="#10b981" opacity="0.4"/>
  <rect x="165" y="250" width="8" height="50" rx="2" fill="#14b8a6" opacity="0.5"/>
  <rect x="180" y="240" width="8" height="60" rx="2" fill="#10b981" opacity="0.3"/>
  <rect x="195" y="270" width="8" height="30" rx="2" fill="#14b8a6" opacity="0.6"/>
  <rect x="210" y="255" width="8" height="45" rx="2" fill="#10b981" opacity="0.4"/>
  <rect x="225" y="265" width="8" height="35" rx="2" fill="#14b8a6" opacity="0.5"/>
  <rect x="240" y="245" width="8" height="55" rx="2" fill="#10b981" opacity="0.3"/>
  <rect x="255" y="275" width="8" height="25" rx="2" fill="#14b8a6" opacity="0.6"/>
  <rect x="270" y="250" width="8" height="50" rx="2" fill="#10b981" opacity="0.4"/>
  <rect x="285" y="260" width="8" height="40" rx="2" fill="#14b8a6" opacity="0.5"/>
  <rect x="300" y="240" width="8" height="60" rx="2" fill="#10b981" opacity="0.3"/>
  <rect x="315" y="270" width="8" height="30" rx="2" fill="#14b8a6" opacity="0.6"/>
  <rect x="330" y="255" width="8" height="45" rx="2" fill="#10b981" opacity="0.4"/>
  <rect x="345" y="265" width="8" height="35" rx="2" fill="#14b8a6" opacity="0.5"/>
  <rect x="360" y="250" width="8" height="50" rx="2" fill="#10b981" opacity="0.4"/>
  <rect x="375" y="275" width="8" height="25" rx="2" fill="#14b8a6" opacity="0.5"/>
  <rect x="390" y="245" width="8" height="55" rx="2" fill="#10b981" opacity="0.3"/>
  <rect x="405" y="260" width="8" height="40" rx="2" fill="#14b8a6" opacity="0.6"/>
  <rect x="420" y="255" width="8" height="45" rx="2" fill="#10b981" opacity="0.4"/>
  <rect x="210" y="330" width="180" height="32" rx="16" fill="#10b981" opacity="0.15"/>
  <text x="300" y="351" text-anchor="middle" fill="#10b981" font-family="system-ui,sans-serif" font-size="13" font-weight="600">ADD AUDIO</text>
</svg>
