<svg xmlns="http://www.w3.org/2000/svg" viewBox="0 0 600 400" fill="none">
  <rect width="600" height="400" fill="#0a0a0f"/>
  <defs>
    <linearGradient id="g2" x1="0" y1="0" x2="1" y2="1">
      <stop offset="0%" stop-color="#a855f7"/>
      <stop offset="100%" stop-color="#ec4899"/>
    </linearGradient>
    <filter id="glow"><feGaussianBlur stdDeviation="3" result="blur"/><feMerge><feMergeNode in="blur"/><feMergeNode in="SourceGraphic"/></feMerge></filter>
  </defs>
  <rect x="80" y="90" width="200" height="220" rx="8" fill="#1a1028" stroke="url(#g2)" stroke-width="1" opacity="0.8"/>
  <rect x="100" y="110" width="160" height="140" rx="4" fill="#0d0618"/>
  <polygon points="180,150 210,180 150,200 210,220 150,240 180,230" fill="url(#g2)" opacity="0.4" filter="url(#glow)"/>
  <polygon points="320,160 360,120 400,160 350,200 300,250 400,210" fill="#a855f7" opacity="0.3"/>
  <line x1="100" y1="280" x2="260" y2="280" stroke="#a855f7" stroke-width="2" opacity="0.5"/>
  <line x1="120" y1="295" x2="240" y2="295" stroke="#ec4899" stroke-width="1.5" opacity="0.4"/>
  <circle cx="60" cy="60" r="2" fill="#a855f7" opacity="0.5"/>
  <circle cx="500" cy="80" r="2" fill="#ec4899" opacity="0.5"/>
  <rect x="420" y="130" width="130" height="140" rx="8" fill="#1a1028" stroke="url(#g2)" stroke-width="1" opacity="0.6"/>
  <rect x="210" y="330" width="180" height="32" rx="16" fill="#a855f7" opacity="0.15"/>
  <text x="300" y="351" text-anchor="middle" fill="#a855f7" font-family="system-ui,sans-serif" font-size="13" font-weight="600">IMAGE → VIDEO</text>
</svg>
